<?xml version="1.0" standalone="no"?>
<!DOCTYPE svg PUBLIC "-//W3C//DTD SVG 20010904//EN"
 "http://www.w3.org/TR/2001/REC-SVG-20010904/DTD/svg10.dtd">
<svg version="1.0" xmlns="http://www.w3.org/2000/svg"
 width="512.000000pt" height="512.000000pt" viewBox="0 0 512.000000 512.000000"
 preserveAspectRatio="xMidYMid meet">

<g transform="translate(0.000000,512.000000) scale(0.100000,-0.100000)"
fill="#000000" stroke="none">
<path d="M811 4000 c-132 -31 -165 -209 -52 -286 l36 -24 1760 0 c1725 0 1761
1 1789 20 41 27 76 87 76 133 0 52 -32 111 -77 138 l-38 24 -1730 2 c-952 0
-1745 -3 -1764 -7z"/>
<path d="M811 2720 c-132 -31 -165 -209 -52 -286 l36 -24 1760 0 c1725 0 1761
1 1789 20 41 27 76 87 76 133 0 52 -32 111 -77 138 l-38 24 -1730 2 c-952 0
-1745 -3 -1764 -7z"/>
<path d="M811 1440 c-132 -31 -165 -209 -52 -286 l36 -24 1760 0 c1725 0 1761
1 1789 20 41 27 76 87 76 133 0 52 -32 111 -77 138 l-38 24 -1730 2 c-952 0
-1745 -3 -1764 -7z"/>
</g>
</svg>
